<?xml version="1.0" encoding="UTF-8" standalone="no"?>
<svg
   xmlns:dc="http://purl.org/dc/elements/1.1/"
   xmlns:cc="http://creativecommons.org/ns#"
   xmlns:rdf="http://www.w3.org/1999/02/22-rdf-syntax-ns#"
   xmlns:svg="http://www.w3.org/2000/svg"
   xmlns="http://www.w3.org/2000/svg"
   xmlns:sodipodi="http://sodipodi.sourceforge.net/DTD/sodipodi-0.dtd"
   xmlns:inkscape="http://www.inkscape.org/namespaces/inkscape"
   id="svg2"
   height="48"
   width="48"
   version="1.1"
   sodipodi:docname="cart.svg"
   inkscape:version="0.92.5 (2060ec1f9f, 2020-04-08)">
  <defs
     id="defs10" />
  <sodipodi:namedview
     pagecolor="#ffffff"
     bordercolor="#666666"
     borderopacity="1"
     objecttolerance="10"
     gridtolerance="10"
     guidetolerance="10"
     inkscape:pageopacity="0"
     inkscape:pageshadow="2"
     inkscape:window-width="1331"
     inkscape:window-height="740"
     id="namedview8"
     showgrid="false"
     units="px"
     inkscape:zoom="9.5144352"
     inkscape:cx="29.241172"
     inkscape:cy="22.263254"
     inkscape:window-x="35"
     inkscape:window-y="0"
     inkscape:window-maximized="1"
     inkscape:current-layer="svg2" />
  <title
     id="title3885">shopping cart</title>
  <g
     id="layer1"
     transform="matrix(0.12660765,0,0,0.12660765,-27.636064,-3.3250341)">
    <path
       id="path3847"
       style="color:#000000;text-indent:0;text-transform:none"
       d="m 579.07,41.891 c -0.5602,0.008 -1.1368,0.0575 -1.6876,0.15625 -0.01,0.002 -0.021,-0.002 -0.031,0 l -55.625,9.5 c -3.5377,0.60697 -6.5035,3.0328 -7.8125,6.375 a 2.529,2.529 0 0 0 0,0.0312 l -25.812,66.187 -251.91,6.2812 c -2.897,0.0724 -5.6164,1.3809 -7.5,3.5625 -1.8833,2.1817 -2.7899,5.0829 -2.4376,7.9688 l 13.906,115.03 c 0.5737,4.8261 4.561,8.6532 9.4063,9.0312 l 179.59,14.281 35.594,28 a 2.529,2.529 0 0 0 0.125,0.0937 c 0.038,0.0264 0.086,0.0365 0.125,0.0625 0.044,0.0291 0.081,0.0652 0.125,0.0937 6.4957,4.8485 8.1056,11.454 7.1876,15.125 -0.5231,2.0918 -1.3217,3.6286 -3.2188,4.8125 -1.8971,1.1838 -5.1742,2.0406 -10.781,1.7188 a 2.529,2.529 0 0 0 -0.063,0 c -0.1801,-0.006 -0.3823,-0.004 -0.5624,0 -0.03,6.9e-4 -0.064,-9.6e-4 -0.094,0 l -214.19,0.625 h -0.031 c -5.6288,-0.0359 -10.366,4.6852 -10.344,10.312 0.022,5.6278 4.7779,10.331 10.406,10.25 0.011,-1.5e-4 0.021,1.9e-4 0.031,0 l 15.656,-0.0312 c -5.8172,3.7083 -9.7187,10.195 -9.7187,17.562 0,11.459 9.3852,20.844 20.844,20.844 11.4588,0 20.844,-9.385 20.844,-20.844 0,-7.4072 -3.9118,-13.958 -9.7812,-17.656 l 176.38,-0.5 c -6.3545,3.5825 -10.688,10.384 -10.688,18.156 0,11.459 9.385,20.844 20.844,20.844 11.459,0 20.844,-9.385 20.844,-20.844 0,-9.9515 -7.0696,-18.341 -16.438,-20.375 8.8575,-3.1334 15.662,-9.5946 19.875,-19.469 a 2.529,2.529 0 0 0 0.1563,-0.375 c 3.23,-12.916 -2.4989,-26.959 -14.312,-36.094 a 2.529,2.529 0 0 0 -0.094,-0.0937 c -0.029,-0.0222 -0.034,-0.0716 -0.062,-0.0937 a 2.529,2.529 0 0 0 -0.3438,-0.34375 l -25.219,-19.781 78.656,-201.47 49.906,-8.5 c 0.01,-0.002 0.021,0.002 0.031,0 5.2427,-0.84286 9.0768,-5.7292 8.625,-11.031 -0.4525,-5.3122 -5.0811,-9.4786 -10.406,-9.4062 z m -98.563,98.125 -14.5,37.188 H 447.101 V 140.86 l 33.406,-0.84375 z m -40.625,1.0312 v 36.156 h -34.906 v -35.281 z m -42.125,1.0312 v 35.125 h -34.906 v -34.25 z m -42.125,1.0625 v 34.062 h -34.906 v -33.188 l 34.906,-0.875 z m -42.125,1.0625 v 33 h -34.906 v -32.125 z m -42.125,1.0312 v 31.969 h -25.594 l -3.7813,-31.219 29.375,-0.75 z m -24.719,39.156 h 24.719 v 32.656 h -20.781 l -3.9375,-32.656 z m 31.938,0 h 34.906 v 32.656 h -34.906 z m 42.125,0 h 34.906 v 32.656 h -34.906 z m 42.125,0 h 34.906 v 32.656 h -34.906 z m 42.125,0 h 34.906 v 32.656 h -34.906 z m 42.125,0 h 16.125 l -12.75,32.656 h -3.375 z m -195.62,39.844 h 19.906 v 23.438 l -17.25,-1.375 -2.6562,-22.062 z m 27.125,0 h 34.906 v 26.781 l -34.906,-2.7812 v -24 z m 42.125,0 h 34.906 v 30.125 l -34.906,-2.75 z m 42.125,0 h 34.906 v 33.5 l -34.906,-2.7812 v -30.719 z m 42.125,0 h 34.906 v 19.875 l -6.625,16.969 c -0.86,-0.41667 -1.7975,-0.6724 -2.75,-0.75 l -25.531,-2.0312 v -34.062 z m 42.125,0 h 0.5312 l -0.5312,1.4688 z m -176.84,132.44 c 6.8111,0 12.25,5.439 12.25,12.25 0,6.811 -5.4389,12.219 -12.25,12.219 -6.8107,0 -12.25,-5.4078 -12.25,-12.219 0,-6.811 5.4393,-12.25 12.25,-12.25 z m 197.59,0 c 6.8109,0 12.25,5.439 12.25,12.25 0,6.811 -5.4391,12.219 -12.25,12.219 -6.811,0 -12.25,-5.4078 -12.25,-12.219 0,-6.811 5.439,-12.25 12.25,-12.25 z m -197.59,5.8125 c -3.7001,0 -6.6562,2.9561 -6.6562,6.6562 0,3.7002 2.9561,6.625 6.6562,6.625 3.7003,0 6.6563,-2.9248 6.6563,-6.625 0,-3.7002 -2.956,-6.6562 -6.6563,-6.6562 z m 197.59,0 c -3.7002,0 -6.6562,2.9561 -6.6562,6.6562 0,3.7002 2.956,6.625 6.6562,6.625 3.7001,0 6.6562,-2.9248 6.6562,-6.625 0,-3.7002 -2.9561,-6.6562 -6.6562,-6.6562 z"
       inkscape:connector-curvature="0" />
  </g>
  <metadata
     id="metadata5">
    <rdf:RDF>
      <cc:Work>
        <dc:format>image/svg+xml</dc:format>
        <dc:type
           rdf:resource="http://purl.org/dc/dcmitype/StillImage" />
        <cc:license
           rdf:resource="http://creativecommons.org/publicdomain/zero/1.0/" />
        <dc:publisher>
          <cc:Agent
             rdf:about="http://openclipart.org/">
            <dc:title>Openclipart</dc:title>
          </cc:Agent>
        </dc:publisher>
        <dc:title>shopping cart</dc:title>
        <dc:date>2010-05-13T14:39:42</dc:date>
        <dc:description>shopping carg</dc:description>
        <dc:source>http://openclipart.org/detail/60139/shopping-cart-by-voyeg3r</dc:source>
        <dc:creator>
          <cc:Agent>
            <dc:title>voyeg3r</dc:title>
          </cc:Agent>
        </dc:creator>
        <dc:subject>
          <rdf:Bag>
            <rdf:li>cart</rdf:li>
            <rdf:li>clip art</rdf:li>
            <rdf:li>clipart</rdf:li>
            <rdf:li>shopping</rdf:li>
            <rdf:li>supermarket</rdf:li>
          </rdf:Bag>
        </dc:subject>
      </cc:Work>
      <cc:License
         rdf:about="http://creativecommons.org/publicdomain/zero/1.0/">
        <cc:permits
           rdf:resource="http://creativecommons.org/ns#Reproduction" />
        <cc:permits
           rdf:resource="http://creativecommons.org/ns#Distribution" />
        <cc:permits
           rdf:resource="http://creativecommons.org/ns#DerivativeWorks" />
      </cc:License>
    </rdf:RDF>
  </metadata>
</svg>
