<?xml version="1.0" encoding="UTF-8" standalone="no"?>
<!-- Generator: Adobe Illustrator 19.0.0, SVG Export Plug-In . SVG Version: 6.00 Build 0)  -->

<svg
   xmlns:dc="http://purl.org/dc/elements/1.1/"
   xmlns:cc="http://creativecommons.org/ns#"
   xmlns:rdf="http://www.w3.org/1999/02/22-rdf-syntax-ns#"
   xmlns:svg="http://www.w3.org/2000/svg"
   xmlns="http://www.w3.org/2000/svg"
   xmlns:sodipodi="http://sodipodi.sourceforge.net/DTD/sodipodi-0.dtd"
   xmlns:inkscape="http://www.inkscape.org/namespaces/inkscape"
   version="1.1"
   id="Layer_1"
   x="0px"
   y="0px"
   viewBox="0 0 511.999 511.999"
   style="enable-background:new 0 0 511.999 511.999;"
   xml:space="preserve"
   sodipodi:docname="Vivero-logo.svg"
   inkscape:version="0.92.5 (2060ec1f9f, 2020-04-08)"><metadata
   id="metadata933"><rdf:RDF><cc:Work
       rdf:about=""><dc:format>image/svg+xml</dc:format><dc:type
         rdf:resource="http://purl.org/dc/dcmitype/StillImage" /></cc:Work></rdf:RDF></metadata><defs
   id="defs931" /><sodipodi:namedview
   pagecolor="#ffffff"
   bordercolor="#666666"
   borderopacity="1"
   objecttolerance="10"
   gridtolerance="10"
   guidetolerance="10"
   inkscape:pageopacity="0"
   inkscape:pageshadow="2"
   inkscape:window-width="1331"
   inkscape:window-height="740"
   id="namedview929"
   showgrid="false"
   inkscape:zoom="0.65186535"
   inkscape:cx="422.2324"
   inkscape:cy="263.53565"
   inkscape:window-x="35"
   inkscape:window-y="0"
   inkscape:window-maximized="1"
   inkscape:current-layer="Layer_1" />
<circle
   style="fill:#1eb415"
   cx="178.67799"
   cy="315.547"
   r="91.950996"
   id="circle872" />
<path
   style="fill:#90de3f"
   d="m 467.758,223.80799 c 9.062,-15.875 14.266,-34.237 14.266,-53.825 0,-60.066 -48.693,-108.757997 -108.757,-108.757997 -60.064,0 -108.758,48.691997 -108.758,108.757997 0,0.745 0.041,1.482 0.056,2.225 -26.711,9.599 -48.556,29.38 -60.887,54.657 -0.034,0.05 -0.067,0.098 -0.102,0.149 38.686,10.855 67.053,46.382 67.053,88.536 0,20.865 -6.954,40.103 -18.664,55.533 0.038,0.02 0.078,0.037 0.117,0.057 14.766,7.52 31.481,11.762 49.186,11.762 h 111.073 c 49.268,0 89.21,-39.943 89.21,-89.211 0,-28.32 -13.214,-53.54 -33.793,-69.883 z"
   id="path874"
   inkscape:connector-curvature="0" />
<g
   id="g882"
   transform="translate(0,25.075993)">
	<circle
   style="fill:#d30707"
   cx="409.401"
   cy="120.309"
   r="23.197001"
   id="circle876" />
	<circle
   style="fill:#d30707"
   cx="433.936"
   cy="284.995"
   r="23.197001"
   id="circle878" />
	<circle
   style="fill:#d30707"
   cx="299.84399"
   cy="180.65199"
   r="23.197001"
   id="circle880" />
</g>
<path
   style="fill:#10b8fa"
   d="m 172.321,128.80499 c 0,-17.361 -13.787,-31.493997 -31.01,-32.066997 -6.896,-20.982 -26.635,-36.136 -49.925,-36.136 -24.56,0 -45.18,16.847 -50.947,39.612997 -0.452,-0.021 -0.905,-0.038 -1.363,-0.038 -15.809,0 -28.627,12.819 -28.627,28.627 h 161.872 z"
   id="path884"
   inkscape:connector-curvature="0" />
<path
   d="m 424.65,491.09999 h -61.755 v -97.748 h 49.445 c 54.952,0 99.659,-44.707 99.659,-99.66 0,-27.648 -11.256,-53.569 -31.159,-72.362 7.631,-15.978 11.633,-33.561 11.633,-51.346 0,-65.73 -53.476,-119.206997 -119.206,-119.206997 -64.094,0 -116.535,50.845997 -119.108,114.318997 -23.361,10.124 -43.193,27.844 -55.972,49.926 -6.318,-1.224 -12.839,-1.872 -19.509,-1.872 -56.463,0 -102.4,45.937 -102.4,102.4 0,52.937 40.378,96.621 91.951,101.87 v 73.681 H 76.031 c -5.77,0 -10.449,4.679 -10.449,10.449 0,5.77 4.679,10.449 10.449,10.449 h 348.62 c 5.771,0 10.449,-4.679 10.449,-10.449 0,-5.77 -4.679,-10.45 -10.45,-10.45 z m -156.551,-309.058 c 4.223,-1.518 7.005,-5.562 6.913,-10.049 -0.007,-0.332 -0.054,-1.67 -0.054,-2.009 0,-54.208 44.101,-98.308997 98.309,-98.308997 54.207,0 98.308,44.100997 98.308,98.308997 0,17.049 -4.459,33.869 -12.892,48.645 -2.557,4.479 -1.463,10.154 2.577,13.362 18.965,15.06 29.842,37.55 29.842,61.701 0,43.43 -35.333,78.762 -78.761,78.762 h -49.445 v -20.007 c 0,-0.003 0,-0.007 0,-0.01 v -44.091 l 37.197,-37.196 c 4.08,-4.08 4.08,-10.697 0,-14.778 -4.079,-4.078 -10.693,-4.079 -14.778,0 l -22.419,22.418 v -20.454 c 0,-0.003 0,-0.007 0,-0.01 v -73.053 c 0,-5.771 -4.679,-10.449 -10.449,-10.449 -5.77,0 -10.449,4.678 -10.449,10.449 v 47.831 l -12.168,-12.168 c 2.328,-4.572 3.651,-9.739 3.651,-15.214 0,-18.55 -15.09,-33.64 -33.641,-33.64 -18.55,0 -33.64,15.09 -33.64,33.64 0,18.55 15.09,33.641 33.64,33.641 5.472,0 10.639,-1.322 15.212,-3.65 l 26.946,26.945 v 41.352 c 0,0.003 0,0.007 0,0.01 v 23.195 l -24.159,-24.158 c -4.081,-4.079 -10.698,-4.079 -14.778,0 -4.08,4.08 -4.08,10.697 0,14.778 l 38.937,38.935 v 15.684 h -40.729 c -11.709,0 -23.027,-2.002 -33.784,-5.963 8.645,-15.011 13.592,-32.41 13.592,-50.941 0,-42.227 -25.695,-78.564 -62.271,-94.204 11.646,-18.002 29.103,-32.049 49.293,-39.304 z m 40.691,32.632 c -0.194,0.194 -0.37,0.398 -0.545,0.603 -2.245,1.978 -5.183,3.189 -8.404,3.189 -7.027,0 -12.743,-5.717 -12.743,-12.743 0,-7.027 5.717,-12.743 12.743,-12.743 7.026,0 12.743,5.717 12.743,12.743 0,3.222 -1.212,6.161 -3.191,8.406 -0.206,0.176 -0.409,0.352 -0.603,0.545 z m -211.614,100.876 c 0,-44.941 36.561,-81.502 81.502,-81.502 44.941,0 81.502,36.561 81.502,81.502 0,41.399 -31.032,75.661 -71.053,80.809 v -38.64 l 37.197,-37.196 c 4.08,-4.08 4.08,-10.697 0,-14.778 -4.08,-4.078 -10.695,-4.079 -14.778,0 l -22.419,22.419 v -30.109 c 0,-5.771 -4.678,-10.449 -10.449,-10.449 -5.771,0 -10.449,4.678 -10.449,10.449 v 55.329 c 0,0.003 0,0.007 0,0.01 v 42.964 c -40.021,-5.147 -71.053,-39.409 -71.053,-80.808 z m 91.951,101.87 c 25.989,-2.646 49.131,-15.054 65.699,-33.485 14.667,6.245 30.25,9.417 46.443,9.417 h 40.729 v 97.748 h -38.836 l 14.671,-14.671 c 4.08,-4.08 4.08,-10.697 0,-14.778 -4.081,-4.079 -10.696,-4.079 -14.778,0 l -14.671,14.671 v -20.459 c 0,-5.77 -4.679,-10.449 -10.449,-10.449 -5.77,0 -10.449,4.679 -10.449,10.449 v 20.459 l -14.671,-14.671 c -4.081,-4.079 -10.696,-4.079 -14.778,0 -4.08,4.08 -4.08,10.697 0,14.778 l 14.674,14.671 h -63.583 v -73.68 z"
   id="path886"
   inkscape:connector-curvature="0" />
<path
   d="M 40.504,491.09999 H 10.957 c -5.77,0 -10.449,4.679 -10.449,10.449 0,5.77 4.679,10.449 10.449,10.449 h 29.547 c 5.77,0 10.449,-4.679 10.449,-10.449 0,-5.77 -4.679,-10.449 -10.449,-10.449 z"
   id="path888"
   inkscape:connector-curvature="0" />
<path
   d="m 501.043,491.09999 h -40.866 c -5.77,0 -10.449,4.679 -10.449,10.449 0,5.77 4.679,10.449 10.449,10.449 h 40.866 c 5.77,0 10.449,-4.679 10.449,-10.449 0,-5.77 -4.679,-10.449 -10.449,-10.449 z"
   id="path890"
   inkscape:connector-curvature="0" />
<path
   d="m 10.449,139.25399 h 161.872 c 5.77,0 10.449,-4.679 10.449,-10.449 0,-20.64 -14.453,-37.758997 -34.006,-41.686997 -10.117,-22.362 -32.393,-36.964 -57.378,-36.964 -26.257,0 -49.403,16.148 -58.713,40.1 C 14.162,93.317993 0,109.43799 0,128.80499 c 0,5.771 4.678,10.449 10.449,10.449 z m 28.627,-28.627 c 0.299,0 0.595,0.014 0.891,0.027 4.962,0.222 9.383,-3.066 10.602,-7.873 4.731,-18.681997 21.515,-31.729997 40.817,-31.729997 18.232,0 34.307,11.634 39.999,28.949997 1.369,4.166 5.195,7.033 9.579,7.179 7.935,0.264 14.705,4.699 18.253,11.175 H 24.208 c 3.294,-4.67 8.73,-7.728 14.868,-7.728 z"
   id="path892"
   inkscape:connector-curvature="0" />
<path
   d="m 409.396,179.02899 c 18.55,0 33.641,-15.09 33.641,-33.64 0,-18.55 -15.09,-33.64 -33.641,-33.64 -18.55,0 -33.64,15.09 -33.64,33.64 -10e-4,18.548 15.09,33.64 33.64,33.64 z m 0,-46.384 c 7.027,0 12.743,5.717 12.743,12.743 0,7.026 -5.717,12.743 -12.743,12.743 -7.027,0 -12.743,-5.717 -12.743,-12.743 10e-4,-7.027 5.716,-12.743 12.743,-12.743 z"
   id="path894"
   inkscape:connector-curvature="0" />
<path
   d="m 400.296,310.06899 c 0,18.55 15.09,33.641 33.64,33.641 18.55,0 33.641,-15.09 33.641,-33.641 0,-18.55 -15.09,-33.64 -33.641,-33.64 -18.549,0 -33.64,15.09 -33.64,33.64 z m 46.383,0 c 0,7.027 -5.717,12.743 -12.743,12.743 -7.027,0 -12.743,-5.717 -12.743,-12.743 0,-7.027 5.717,-12.743 12.743,-12.743 7.028,0.001 12.743,5.716 12.743,12.743 z"
   id="path896"
   inkscape:connector-curvature="0" />
<g
   id="g898">
</g>
<g
   id="g900">
</g>
<g
   id="g902">
</g>
<g
   id="g904">
</g>
<g
   id="g906">
</g>
<g
   id="g908">
</g>
<g
   id="g910">
</g>
<g
   id="g912">
</g>
<g
   id="g914">
</g>
<g
   id="g916">
</g>
<g
   id="g918">
</g>
<g
   id="g920">
</g>
<g
   id="g922">
</g>
<g
   id="g924">
</g>
<g
   id="g926">
</g>
</svg>